<?xml version="1.0" encoding="utf-8"?>
<!-- created with bpmn-js / http://bpmn.io -->
<!DOCTYPE svg PUBLIC "-//W3C//DTD SVG 1.1//EN" "http://www.w3.org/Graphics/SVG/1.1/DTD/svg11.dtd">
<svg xmlns="http://www.w3.org/2000/svg" xmlns:xlink="http://www.w3.org/1999/xlink" width="574" height="317" viewBox="38 -53 574 317" version="1.1"><defs><marker viewBox="0 0 20 20" markerWidth="10" markerHeight="10" orient="auto" refX="11" refY="10" id="markerSiup2os3p9"><path d="M 1 5 L 11 10 L 1 15 Z" style="stroke-width: 1; stroke-linecap: round; stroke-dasharray: 10000, 1;" fill="#000000"/></marker><marker viewBox="0 0 20 20" markerWidth="20" markerHeight="20" orient="auto" refX="6" refY="6" id="markerSiup2os3pb"><circle cx="6" cy="6" r="3.5" style="stroke-width: 1; stroke-linecap: round; stroke-dasharray: 10000, 1;" fill="#ffffff" stroke="#000000"/></marker><marker viewBox="0 0 20 20" markerWidth="20" markerHeight="20" orient="auto" refX="8.5" refY="5" id="markerSiup2os3pd"><path d="m 1 5 l 0 -3 l 7 3 l -7 3 z" style="stroke-width: 1; stroke-linecap: butt; stroke-dasharray: 10000, 1;" fill="#ffffff" stroke="#000000"/></marker><marker viewBox="0 0 20 20" markerWidth="10" markerHeight="10" orient="auto" refX="1" refY="10" id="markerSiup2os3pf"><path d="M 11 5 L 1 10 L 11 15" style="stroke-width: 1.5; stroke-linecap: round; stroke-dasharray: 10000, 1;" fill="none" stroke="#000000"/></marker><marker viewBox="0 0 20 20" markerWidth="10" markerHeight="10" orient="auto" refX="12" refY="10" id="markerSiup2os3ph"><path d="M 1 5 L 11 10 L 1 15" style="stroke-width: 1.5; stroke-linecap: round; stroke-dasharray: 10000, 1;" fill="none" stroke="#000000"/></marker><marker viewBox="0 0 20 20" markerWidth="10" markerHeight="10" orient="auto" refX="-1" refY="10" id="markerSiup2os3pj"><path d="M 0 10 L 8 6 L 16 10 L 8 14 Z" style="stroke-width: 1; stroke-linecap: round; stroke-dasharray: 10000, 1;" fill="#ffffff" stroke="#000000"/></marker><marker viewBox="0 0 20 20" markerWidth="10" markerHeight="10" orient="auto" refX="-5" refY="10" id="markerSiup2os3pl"><path d="M 1 4 L 5 16" style="stroke-width: 1; stroke-linecap: round; stroke-dasharray: 10000, 1;" fill="#000000" stroke="#000000"/></marker></defs><g class="djs-group" xmlns="http://www.w3.org/2000/svg"><g class="djs-element djs-shape" data-element-id="StartEvent_0ip8pvs" transform="matrix(1,0,0,1,44,64)" style="display: block;"><g class="djs-visual"><circle cx="18" cy="18" r="18" style="stroke-width: 2;" stroke="#000000" fill="#ffffff"></circle></g><rect x="0" y="0" width="36" height="36" style="stroke-opacity: 0; stroke-width: 15;" fill="none" stroke="#ffffff" class="djs-hit"></rect><rect x="-6" y="-6" width="48" height="48" style="" fill="none" class="djs-outline"></rect></g></g><g class="djs-group" xmlns="http://www.w3.org/2000/svg"><g class="djs-element djs-shape" data-element-id="StartEvent_0ip8pvs_label" transform="matrix(1,0,0,1,62,100)" style="display: block;"><g class="djs-visual"><text style="font-family: Arial,sans-serif; font-size: 11px;" class=" djs-label" transform="matrix(1,0,0,1,0,0)"><tspan x="10.75833511352539" y="12.666666984558105">Required item</tspan><tspan x="45" y="12.666666984558105"></tspan></text></g><rect x="0" y="0" width="0" height="0" style="stroke-opacity: 0; stroke-width: 15;" fill="none" stroke="#ffffff" class="djs-hit"></rect><rect x="-6" y="-6" width="12" height="12" style="" fill="none" class="djs-outline"></rect></g></g><g class="djs-group" xmlns="http://www.w3.org/2000/svg"><g class="djs-element djs-shape" data-element-id="Task_1ixkzbd" transform="matrix(1,0,0,1,197,42)" style="display: block;"><g class="djs-visual"><rect x="0" y="0" width="100" height="80" rx="10" ry="10" style="stroke-width: 2;" stroke="#000000" fill="#ffffff"></rect><text style="font-family: Arial,sans-serif; font-size: 12px;" class=" djs-label"><tspan x="7.333332061767578" y="36.5">Find any filtered</tspan><tspan x="15" y="50.5">item on eBay </tspan></text></g><rect x="0" y="0" width="100" height="80" style="stroke-opacity: 0; stroke-width: 15;" fill="none" stroke="#ffffff" class="djs-hit"></rect><rect x="-6" y="-6" width="112" height="92" style="" fill="none" class="djs-outline"></rect></g></g><g class="djs-group" xmlns="http://www.w3.org/2000/svg"><g class="djs-element djs-shape" data-element-id="ExclusiveGateway_0rj9ov5" transform="matrix(1,0,0,1,409,57)" style="display: block;"><g class="djs-visual"><polygon points="25,0,50,25,25,50,0,25" style="stroke-width: 2;" stroke="#000000" fill="#ffffff"></polygon><path d="m 16,15 7.42857142857143,9.714285714285715 -7.42857142857143,9.714285714285715 3.428571428571429,0 5.714285714285715,-7.464228571428572 5.714285714285715,7.464228571428572 3.428571428571429,0 -7.42857142857143,-9.714285714285715 7.42857142857143,-9.714285714285715 -3.428571428571429,0 -5.714285714285715,7.464228571428572 -5.714285714285715,-7.464228571428572 -3.428571428571429,0 z" style="stroke-width: 1;" fill="#000000" stroke="#000000"></path></g><rect x="0" y="0" width="50" height="50" style="stroke-opacity: 0; stroke-width: 15;" fill="none" stroke="#ffffff" class="djs-hit"></rect><rect x="-6" y="-6" width="62" height="62" style="" fill="none" class="djs-outline"></rect></g></g><g class="djs-group" xmlns="http://www.w3.org/2000/svg"><g class="djs-element djs-shape" data-element-id="Task_1f12mir" transform="matrix(1,0,0,1,384,178)" style="display: block;"><g class="djs-visual"><rect x="0" y="0" width="100" height="80" rx="10" ry="10" style="stroke-width: 2;" stroke="#000000" fill="#ffffff"></rect><text style="font-family: Arial,sans-serif; font-size: 12px;" class=" djs-label"><tspan x="15.666667938232422" y="36.5">Buy selected </tspan><tspan x="38.666666984558105" y="50.5">item </tspan></text></g><rect x="0" y="0" width="100" height="80" style="stroke-opacity: 0; stroke-width: 15;" fill="none" stroke="#ffffff" class="djs-hit"></rect><rect x="-6" y="-6" width="112" height="92" style="" fill="none" class="djs-outline"></rect></g></g><g class="djs-group" xmlns="http://www.w3.org/2000/svg"><g class="djs-element djs-shape" data-element-id="EndEvent_1i8mctl" transform="matrix(1,0,0,1,570,200)" style="display: block;"><g class="djs-visual"><circle cx="18" cy="18" r="18" style="stroke-width: 4;" stroke="#000000" fill="#ffffff"></circle></g><rect x="0" y="0" width="36" height="36" style="stroke-opacity: 0; stroke-width: 15;" fill="none" stroke="#ffffff" class="djs-hit"></rect><rect x="-6" y="-6" width="48" height="48" style="" fill="none" class="djs-outline"></rect></g></g><g class="djs-group" xmlns="http://www.w3.org/2000/svg"><g class="djs-element djs-connection" data-element-id="SequenceFlow_0fvv2t4" style="display: block;"><g class="djs-visual"><path d="m  80,82L197,82 " style="stroke-width: 2; stroke-linejoin: round; marker-end: url(&quot;#markerSiup2os3p9&quot;);" fill="none" stroke="#000000"></path></g><polyline points="80,82 197,82 " style="stroke-opacity: 0; stroke-width: 15;" fill="none" stroke="#ffffff" class="djs-hit"></polyline><rect x="74" y="76" width="129" height="12" style="" fill="none" class="djs-outline"></rect></g></g><g class="djs-group" xmlns="http://www.w3.org/2000/svg"><g class="djs-element djs-shape" data-element-id="SequenceFlow_0fvv2t4_label" transform="matrix(1,0,0,1,139,57)" style="display: none;"><g class="djs-visual"><text style="font-family: Arial,sans-serif; font-size: 11px;" class=" djs-label" transform="matrix(1,0,0,1,0,0)"><tspan x="45" y="0"></tspan></text></g><rect x="0" y="0" width="0" height="0" style="stroke-opacity: 0; stroke-width: 15;" fill="none" stroke="#ffffff" class="djs-hit"></rect><rect x="-6" y="-6" width="12" height="12" style="" fill="none" class="djs-outline"></rect></g></g><g class="djs-group" xmlns="http://www.w3.org/2000/svg"><g class="djs-element djs-shape" data-element-id="ExclusiveGateway_0rj9ov5_label" transform="matrix(1,0,0,1,434,107)" style="display: block;"><g class="djs-visual"><text style="font-family: Arial,sans-serif; font-size: 11px;" class=" djs-label" transform="matrix(1,0,0,1,0,0)"><tspan x="10.150001525878906" y="12.666666984558105">Is it available?</tspan><tspan x="45" y="12.666666984558105"></tspan></text></g><rect x="0" y="0" width="0" height="0" style="stroke-opacity: 0; stroke-width: 15;" fill="none" stroke="#ffffff" class="djs-hit"></rect><rect x="-6" y="-6" width="12" height="12" style="" fill="none" class="djs-outline"></rect></g></g><g class="djs-group" xmlns="http://www.w3.org/2000/svg"><g class="djs-element djs-connection" data-element-id="SequenceFlow_02wn1qa" style="display: block;"><g class="djs-visual"><path d="m  297,82L409,82 " style="stroke-width: 2; stroke-linejoin: round; marker-end: url(&quot;#markerSiup2os3p9&quot;);" fill="none" stroke="#000000"></path></g><polyline points="297,82 409,82 " style="stroke-opacity: 0; stroke-width: 15;" fill="none" stroke="#ffffff" class="djs-hit"></polyline><rect x="291" y="76" width="124" height="12" style="" fill="none" class="djs-outline"></rect></g></g><g class="djs-group" xmlns="http://www.w3.org/2000/svg"><g class="djs-element djs-shape" data-element-id="SequenceFlow_02wn1qa_label" transform="matrix(1,0,0,1,353,57)" style="display: none;"><g class="djs-visual"><text style="font-family: Arial,sans-serif; font-size: 11px;" class=" djs-label" transform="matrix(1,0,0,1,0,0)"><tspan x="45" y="0"></tspan></text></g><rect x="0" y="0" width="0" height="0" style="stroke-opacity: 0; stroke-width: 15;" fill="none" stroke="#ffffff" class="djs-hit"></rect><rect x="-6" y="-6" width="12" height="12" style="" fill="none" class="djs-outline"></rect></g></g><g class="djs-group" xmlns="http://www.w3.org/2000/svg"><g class="djs-element djs-connection" data-element-id="SequenceFlow_1ez26pv" style="display: block;"><g class="djs-visual"><path d="m  434,57L434,-32 L247,-32 L247,42 " style="stroke-width: 2; stroke-linejoin: round; marker-end: url(&quot;#markerSiup2os3p9&quot;);" fill="none" stroke="#000000"></path></g><polyline points="434,57 434,-32 247,-32 247,42 " style="stroke-opacity: 0; stroke-width: 15;" fill="none" stroke="#ffffff" class="djs-hit"></polyline><rect x="241" y="-38" width="199" height="101" style="" fill="none" class="djs-outline"></rect></g></g><g class="djs-group" xmlns="http://www.w3.org/2000/svg"><g class="djs-element djs-shape" data-element-id="SequenceFlow_1ez26pv_label" transform="matrix(1,0,0,1,341,-47)" style="display: block;"><g class="djs-visual"><text style="font-family: Arial,sans-serif; font-size: 11px;" class=" djs-label" transform="matrix(1,0,0,1,0,0)"><tspan x="37.96666669845581" y="12.666666984558105">No</tspan></text></g><rect x="0" y="0" width="0" height="0" style="stroke-opacity: 0; stroke-width: 15;" fill="none" stroke="#ffffff" class="djs-hit"></rect><rect x="-6" y="-6" width="12" height="12" style="" fill="none" class="djs-outline"></rect></g></g><g class="djs-group" xmlns="http://www.w3.org/2000/svg"><g class="djs-element djs-connection" data-element-id="SequenceFlow_1jetrs5" style="display: block;"><g class="djs-visual"><path d="m  434,107L434,178 " style="stroke-width: 2; stroke-linejoin: round; marker-end: url(&quot;#markerSiup2os3p9&quot;);" fill="none" stroke="#000000"></path></g><polyline points="434,107 434,178 " style="stroke-opacity: 0; stroke-width: 15;" fill="none" stroke="#ffffff" class="djs-hit"></polyline><rect x="428" y="101" width="12" height="83" style="" fill="none" class="djs-outline"></rect></g></g><g class="djs-group" xmlns="http://www.w3.org/2000/svg"><g class="djs-element djs-shape" data-element-id="SequenceFlow_1jetrs5_label" transform="matrix(1,0,0,1,449,132.5)" style="display: none;"><g class="djs-visual"><text style="font-family: Arial,sans-serif; font-size: 11px;" class=" djs-label" transform="matrix(1,0,0,1,0,0)"><tspan x="45" y="0"></tspan></text></g><rect x="0" y="0" width="0" height="0" style="stroke-opacity: 0; stroke-width: 15;" fill="none" stroke="#ffffff" class="djs-hit"></rect><rect x="-6" y="-6" width="12" height="12" style="" fill="none" class="djs-outline"></rect></g></g><g class="djs-group" xmlns="http://www.w3.org/2000/svg"><g class="djs-element djs-shape" data-element-id="EndEvent_1i8mctl_label" transform="matrix(1,0,0,1,588,236)" style="display: none;"><g class="djs-visual"><text style="font-family: Arial,sans-serif; font-size: 11px;" class=" djs-label" transform="matrix(1,0,0,1,0,0)"><tspan x="45" y="0"></tspan></text></g><rect x="0" y="0" width="0" height="0" style="stroke-opacity: 0; stroke-width: 15;" fill="none" stroke="#ffffff" class="djs-hit"></rect><rect x="-6" y="-6" width="12" height="12" style="" fill="none" class="djs-outline"></rect></g></g><g class="djs-group" xmlns="http://www.w3.org/2000/svg"><g class="djs-element djs-connection" data-element-id="SequenceFlow_1t8k95r" style="display: block;"><g class="djs-visual"><path d="m  484,218L570,218 " style="stroke-width: 2; stroke-linejoin: round; marker-end: url(&quot;#markerSiup2os3p9&quot;);" fill="none" stroke="#000000"></path></g><polyline points="484,218 570,218 " style="stroke-opacity: 0; stroke-width: 15;" fill="none" stroke="#ffffff" class="djs-hit"></polyline><rect x="478" y="212" width="98" height="12" style="" fill="none" class="djs-outline"></rect></g></g><g class="djs-group" xmlns="http://www.w3.org/2000/svg"><g class="djs-element djs-shape" data-element-id="SequenceFlow_1t8k95r_label" transform="matrix(1,0,0,1,527,193)" style="display: none;"><g class="djs-visual"><text style="font-family: Arial,sans-serif; font-size: 11px;" class=" djs-label" transform="matrix(1,0,0,1,0,0)"><tspan x="45" y="0"></tspan></text></g><rect x="0" y="0" width="0" height="0" style="stroke-opacity: 0; stroke-width: 15;" fill="none" stroke="#ffffff" class="djs-hit"></rect><rect x="-6" y="-6" width="12" height="12" style="" fill="none" class="djs-outline"></rect></g></g></svg>